<?xml version="1.0" encoding="UTF-8"?>
<svg version="1.1" xmlns="http://www.w3.org/2000/svg" width="512" height="512">
<path d="M0 0 C129.36 0 258.72 0 392 0 C392 9.9 392 19.8 392 30 C411.8 30 431.6 30 452 30 C452 117.78 452 205.56 452 296 C432.2 296 412.4 296 392 296 C392 305.9 392 315.8 392 326 C262.64 326 133.28 326 0 326 C0 316.1 0 306.2 0 296 C-19.8 296 -39.6 296 -60 296 C-60 208.22 -60 120.44 -60 30 C-40.2 30 -20.4 30 0 30 C0 20.1 0 10.2 0 0 Z " fill="#82FEFE" transform="translate(60,33)"/>
<path d="M0 0 C3.50157238 2.02613239 6.52378998 4.44510612 9.6328125 7.0234375 C10.97965469 8.12079157 12.32732416 9.21713097 13.67578125 10.3125 C14.6800415 11.13089355 14.6800415 11.13089355 15.70458984 11.96582031 C18.41718847 14.15705597 21.17553885 16.27975423 23.9453125 18.3984375 C29.08894221 22.33307051 34.21009874 26.29548572 39.3203125 30.2734375 C40.08045654 30.86479492 40.84060059 31.45615234 41.6237793 32.06542969 C45.49301465 35.07632443 49.35959683 38.09056035 53.22265625 41.109375 C56.21337426 43.44625442 59.21120477 45.77350657 62.21484375 48.09375 C65.21637301 50.41284168 68.18706275 52.76565898 71.14453125 55.140625 C72.57772646 56.26873568 74.0113041 57.39636071 75.4453125 58.5234375 C76.09709473 59.05855957 76.74887695 59.59368164 77.42041016 60.14501953 C79.44829454 61.7859466 79.44829454 61.7859466 82.6328125 63.5234375 C86.31707001 62.47659557 89.23870866 60.59615095 92.37109375 58.43359375 C93.26554199 57.81967773 94.15999023 57.20576172 95.08154297 56.57324219 C96.49910889 55.58952637 96.49910889 55.58952637 97.9453125 54.5859375 C98.9264502 53.91079102 99.90758789 53.23564453 100.91845703 52.54003906 C102.90261694 51.17408729 104.88538124 49.80610591 106.86669922 48.43603516 C109.93262866 46.31613301 113.00517819 44.20605114 116.07885742 42.09741211 C118.63098325 40.34571253 121.18021712 38.58982894 123.72949219 36.83398438 C127.02928206 34.56188689 130.33118151 32.29285837 133.6328125 30.0234375 C134.96615532 29.10678464 136.29948867 28.19011799 137.6328125 27.2734375 C145.6328125 21.7734375 145.6328125 21.7734375 147.63574219 20.39648438 C148.959386 19.4864388 150.28295461 18.57628385 151.60644531 17.66601562 C155.0873966 15.2721103 158.56991337 12.88052524 162.0546875 10.4921875 C162.77914063 9.99525391 163.50359375 9.49832031 164.25 8.98632812 C165.63493407 8.0364054 167.02032468 7.0871478 168.40625 6.13867188 C169.03273438 5.70876953 169.65921875 5.27886719 170.3046875 4.8359375 C171.18350586 4.23845703 171.18350586 4.23845703 172.08007812 3.62890625 C173.78020924 2.45768017 173.78020924 2.45768017 175.7734375 0.6484375 C177.6328125 -0.4765625 177.6328125 -0.4765625 179.95703125 -0.49609375 C183.68475583 0.92425094 186.43720103 3.29067338 189.4453125 5.8359375 C190.78206338 6.93707342 192.12066592 8.0359646 193.4609375 9.1328125 C194.14865234 9.69677734 194.83636719 10.26074219 195.54492188 10.84179688 C198.8616602 13.51318294 202.27429783 16.05035703 205.6953125 18.5859375 C211.38565184 22.81755085 217.00040741 27.12931632 222.5637207 31.52636719 C226.83455225 34.90135986 231.13785225 38.23136869 235.45776367 41.54345703 C240.19931948 45.18227584 244.91725204 48.85101617 249.6328125 52.5234375 C259.57764006 60.26561422 269.54979374 67.96117343 279.6328125 75.5234375 C279.6328125 107.5334375 279.6328125 139.5434375 279.6328125 172.5234375 C150.2728125 172.5234375 20.9128125 172.5234375 -112.3671875 172.5234375 C-112.3671875 140.5134375 -112.3671875 108.5034375 -112.3671875 75.5234375 C-91.03851617 60.59336757 -91.03851617 60.59336757 -80.69140625 53.5 C-75.39996262 49.86519396 -70.13479401 46.19265988 -64.8671875 42.5234375 C-57.76476837 37.57656485 -50.65265854 32.64519589 -43.51269531 27.75268555 C-38.54898036 24.34694807 -33.60823503 20.90890924 -28.67138672 17.46435547 C-25.68564506 15.38364437 -22.6947658 13.31049814 -19.703125 11.23828125 C-16.58047279 9.07362857 -13.47697774 6.88995981 -10.40625 4.65234375 C-9.36210937 3.90855469 -8.31796875 3.16476563 -7.2421875 2.3984375 C-6.39398438 1.77710938 -5.54578125 1.15578125 -4.671875 0.515625 C-2.3671875 -0.4765625 -2.3671875 -0.4765625 0 0 Z " fill="#39AFA7" transform="translate(172.3671875,186.4765625)"/>
<path d="M0 0 C64.68 0 129.36 0 196 0 C196 9.9 196 19.8 196 30 C215.8 30 235.6 30 256 30 C256 117.78 256 205.56 256 296 C236.2 296 216.4 296 196 296 C196.17015625 288.95398438 196.17015625 288.95398438 196.34375 281.765625 C196.37995835 278.76644334 196.41136372 275.76870465 196.42578125 272.76953125 C196.44905633 268.02107397 196.48880188 263.27725285 196.63427734 258.53076172 C198.06207709 240.30919969 198.06207709 240.30919969 191.57763672 224.37060547 C188.33119867 221.64891289 184.88081495 219.73854934 181.02970886 218.00604248 C177.69512717 216.35322867 174.96248778 214.00639267 172.125 211.625 C171.49134521 211.12548828 170.85769043 210.62597656 170.20483398 210.11132812 C169.45182007 209.51481445 169.45182007 209.51481445 168.68359375 208.90625 C158.00428529 200.4677023 147.22674525 192.15509624 136.40405273 183.90161133 C131.16334508 179.90079767 125.95186985 175.86364487 120.75 171.8125 C120.00016846 171.23024658 119.25033691 170.64799316 118.4777832 170.0480957 C115.01985259 167.36154669 111.57223829 164.66453414 108.15234375 161.9296875 C107.56291992 161.46328857 106.97349609 160.99688965 106.36621094 160.51635742 C104.80582706 159.28116699 103.25223406 158.03741108 101.69921875 156.79296875 C98.88356671 154.92265864 97.37884389 153.98426004 94 154 C91.06348666 155.56426349 91.06348666 155.56426349 88.0625 158 C86.82380459 158.93130541 85.58275302 159.85948209 84.33984375 160.78515625 C83.65519043 161.29836426 82.97053711 161.81157227 82.26513672 162.34033203 C77.96650271 165.48994552 73.53771609 168.45099012 69.125 171.4375 C67.2185437 172.73276932 65.31229167 174.02833937 63.40625 175.32421875 C62.48714844 175.9486084 61.56804687 176.57299805 60.62109375 177.21630859 C56.94779391 179.71604114 53.28477566 182.23052277 49.625 184.75 C48.67004639 185.40730103 48.67004639 185.40730103 47.69580078 186.07788086 C46.43155665 186.94828299 45.16739556 187.81880575 43.90332031 188.68945312 C39.9418988 191.41712253 35.97770761 194.14076666 32.01391602 196.86499023 C28.59258045 199.21665913 25.17233567 201.56988951 21.75390625 203.92578125 C1.32587283 218 1.32587283 218 0 218 C0 195.23 0 172.46 0 149 C8.415 147.02 8.415 147.02 17 145 C23.31195353 141.77796391 23.31195353 141.77796391 28.6328125 137.31640625 C30 136 30 136 32 136 C32.26941406 135.43539062 32.53882813 134.87078125 32.81640625 134.2890625 C34.06077282 131.88246577 35.47724642 129.65641399 36.9375 127.375 C43.27209875 116.71924464 44.97188039 105.00157827 42.30859375 92.84375 C38.46902404 81.40536661 31.01250704 71.74950731 20.4375 65.75 C13.85396909 63.15367795 6.86568739 61.71642185 0 60 C0 40.2 0 20.4 0 0 Z " fill="#4CD8FE" transform="translate(256,33)"/>
<path d="M0 0 C3.50157238 2.02613239 6.52378998 4.44510612 9.6328125 7.0234375 C10.97965469 8.12079157 12.32732416 9.21713097 13.67578125 10.3125 C14.6800415 11.13089355 14.6800415 11.13089355 15.70458984 11.96582031 C18.41718847 14.15705597 21.17553885 16.27975423 23.9453125 18.3984375 C29.08894221 22.33307051 34.21009874 26.29548572 39.3203125 30.2734375 C40.08045654 30.86479492 40.84060059 31.45615234 41.6237793 32.06542969 C45.49301465 35.07632443 49.35959683 38.09056035 53.22265625 41.109375 C54.73419054 42.28929883 56.24590777 43.46898836 57.7578125 44.6484375 C58.49273926 45.22207031 59.22766602 45.79570312 59.98486328 46.38671875 C65.84648121 50.94676022 71.77925346 55.40706275 77.77197266 59.79345703 C82.52493855 63.30768961 82.52493855 63.30768961 83.6328125 65.5234375 C83.72471087 66.95526573 83.75474708 68.39130698 83.75306702 69.82608032 C83.75513326 71.1778559 83.75513326 71.1778559 83.75724125 72.55694008 C83.75364314 73.55215864 83.75004503 74.5473772 83.74633789 75.57275391 C83.74645843 76.63359884 83.74657896 77.69444378 83.74670315 78.78743553 C83.74595468 82.23331143 83.73832939 85.67913374 83.73046875 89.125 C83.72899913 91.24763971 83.72797854 93.37027978 83.72741699 95.49291992 C83.72216645 103.37809796 83.70820534 111.26326825 83.6953125 119.1484375 C83.6746875 136.7621875 83.6540625 154.3759375 83.6328125 172.5234375 C18.9528125 172.5234375 -45.7271875 172.5234375 -112.3671875 172.5234375 C-112.3671875 140.5134375 -112.3671875 108.5034375 -112.3671875 75.5234375 C-91.03851617 60.59336757 -91.03851617 60.59336757 -80.69140625 53.5 C-75.39996262 49.86519396 -70.13479401 46.19265988 -64.8671875 42.5234375 C-57.76476837 37.57656485 -50.65265854 32.64519589 -43.51269531 27.75268555 C-38.54898036 24.34694807 -33.60823503 20.90890924 -28.67138672 17.46435547 C-25.68564506 15.38364437 -22.6947658 13.31049814 -19.703125 11.23828125 C-16.58047279 9.07362857 -13.47697774 6.88995981 -10.40625 4.65234375 C-9.36210937 3.90855469 -8.31796875 3.16476563 -7.2421875 2.3984375 C-6.39398438 1.77710938 -5.54578125 1.15578125 -4.671875 0.515625 C-2.3671875 -0.4765625 -2.3671875 -0.4765625 0 0 Z " fill="#00DA80" transform="translate(172.3671875,186.4765625)"/>
<path d="M0 0 C19.8 0 39.6 0 60 0 C60 87.78 60 175.56 60 266 C40.2 266 20.4 266 0 266 C0 178.22 0 90.44 0 0 Z " fill="#CFD5F3" transform="translate(452,63)"/>
<path d="M0 0 C19.8 0 39.6 0 60 0 C60 87.78 60 175.56 60 266 C40.2 266 20.4 266 0 266 C0 178.22 0 90.44 0 0 Z " fill="#D5E7FF" transform="translate(0,63)"/>
<path d="M0 0 C12.43527487 6.38772478 20.82360214 17.03245264 25.18359375 30.16796875 C27.51879794 43.16491326 25.13509 55.06549708 18.10546875 66.13671875 C16.17042494 68.88910931 14.09876593 71.10020705 11.5703125 73.3203125 C11.05855469 73.81144531 10.54679687 74.30257812 10.01953125 74.80859375 C1.27000929 82.91447271 -9.85710336 85.85712519 -21.609375 85.5625 C-33.89058737 84.50788066 -44.24028983 78.52188683 -52.64453125 69.6171875 C-60.68690797 59.26944678 -63.68196422 47.22351817 -62.4296875 34.3203125 C-59.86539081 21.32992329 -53.25320968 11.0026232 -42.4296875 3.3203125 C-29.357404 -3.72400113 -14.10022761 -5.6165252 0 0 Z " fill="#FEB655" transform="translate(274.4296875,96.6796875)"/>
<path d="M0 0 C0 28.71 0 57.42 0 87 C1.65 87 3.3 87 5 87 C5 87.33 5 87.66 5 88 C-9.13700268 88.73829608 -19.2341367 85.03695601 -30.2578125 76.1875 C-38.87611738 68.32288718 -43.21527396 57.68103185 -44.25 46.234375 C-44.76396663 33.96342167 -41.02125243 23.27606222 -33 14 C-23.63621177 3.94587577 -13.62319373 0 0 0 Z " fill="#FEDA45" transform="translate(256,94)"/>
<path d="M0 0 C5.39190397 4.4978935 10.39391684 9.26126542 15.33984375 14.2421875 C16.10680069 15.01055939 16.87375763 15.77893127 17.66395569 16.57058716 C20.0908474 19.00303509 22.51422127 21.43895322 24.9375 23.875 C26.59156486 25.53408552 28.24585945 27.19294202 29.90039062 28.8515625 C33.93625433 32.89839709 37.96924277 36.94807953 42 41 C40.55419034 44.31613882 38.75170208 46.49185728 36.19287109 49.03417969 C35.41221283 49.81468689 34.63155457 50.59519409 33.82723999 51.39935303 C32.98448517 52.23178528 32.14173035 53.06421753 31.2734375 53.921875 C30.41062164 54.78186096 29.54780579 55.64184692 28.65884399 56.52789307 C25.90221971 59.2733231 23.13872201 62.0117169 20.375 64.75 C18.50475143 66.61021783 16.63495411 68.47088946 14.765625 70.33203125 C10.1823064 74.89329945 5.59332522 79.44881011 1 84 C-2.76672156 80.81597912 -6.49002591 77.63838094 -9.96484375 74.1328125 C-10.61904297 73.47539062 -11.27324219 72.81796875 -11.94726562 72.140625 C-12.60404297 71.47546875 -13.26082031 70.8103125 -13.9375 70.125 C-14.62134766 69.43664062 -15.30519531 68.74828125 -16.00976562 68.0390625 C-17.67551464 66.36166489 -19.3388622 64.68196209 -21 63 C-19.5735422 59.7413364 -17.83295838 57.5975146 -15.3046875 55.109375 C-14.23154297 54.04589844 -14.23154297 54.04589844 -13.13671875 52.9609375 C-12.39035156 52.23132813 -11.64398438 51.50171875 -10.875 50.75 C-10.12089844 50.00492187 -9.36679687 49.25984375 -8.58984375 48.4921875 C-6.73099228 46.6568658 -4.86762995 44.8263809 -3 43 C-4.4264578 39.7413364 -6.16704162 37.5975146 -8.6953125 35.109375 C-9.41074219 34.40039062 -10.12617188 33.69140625 -10.86328125 32.9609375 C-11.60964844 32.23132813 -12.35601562 31.50171875 -13.125 30.75 C-13.87910156 30.00492187 -14.63320313 29.25984375 -15.41015625 28.4921875 C-17.26900772 26.6568658 -19.13237005 24.8263809 -21 23 C-19.48623919 19.43235715 -17.39486871 17.16293713 -14.6484375 14.453125 C-13.79765625 13.60878906 -12.946875 12.76445312 -12.0703125 11.89453125 C-11.18085938 11.02183594 -10.29140625 10.14914062 -9.375 9.25 C-8.4778125 8.36183594 -7.580625 7.47367187 -6.65625 6.55859375 C-4.44192996 4.36783031 -2.22307565 2.18187237 0 0 Z " fill="#4D41F1" transform="translate(451,395)"/>
<path d="M0 0 C3.76672156 3.18402088 7.49002591 6.36161906 10.96484375 9.8671875 C11.94614258 10.85332031 11.94614258 10.85332031 12.94726562 11.859375 C13.93243164 12.85710937 13.93243164 12.85710937 14.9375 13.875 C15.62134766 14.56335938 16.30519531 15.25171875 17.00976562 15.9609375 C18.67551464 17.63833511 20.3388622 19.31803791 22 21 C20.5735422 24.2586636 18.83295838 26.4024854 16.3046875 28.890625 C15.58925781 29.59960938 14.87382813 30.30859375 14.13671875 31.0390625 C13.39035156 31.76867187 12.64398438 32.49828125 11.875 33.25 C11.12089844 33.99507813 10.36679688 34.74015625 9.58984375 35.5078125 C7.73099228 37.3431342 5.86762995 39.1736191 4 41 C5.4264578 44.2586636 7.16704162 46.4024854 9.6953125 48.890625 C10.76845703 49.95410156 10.76845703 49.95410156 11.86328125 51.0390625 C12.60964844 51.76867187 13.35601562 52.49828125 14.125 53.25 C14.87910156 53.99507813 15.63320312 54.74015625 16.41015625 55.5078125 C18.26900772 57.3431342 20.13237005 59.1736191 22 61 C20.48623919 64.56764285 18.39486871 66.83706287 15.6484375 69.546875 C14.79765625 70.39121094 13.946875 71.23554688 13.0703125 72.10546875 C12.18085937 72.97816406 11.29140625 73.85085938 10.375 74.75 C9.4778125 75.63816406 8.580625 76.52632813 7.65625 77.44140625 C5.44192996 79.63216969 3.22307565 81.81812763 1 84 C-4.39190397 79.5021065 -9.39391684 74.73873458 -14.33984375 69.7578125 C-15.10680069 68.98944061 -15.87375763 68.22106873 -16.66395569 67.42941284 C-19.0908474 64.99696491 -21.51422127 62.56104678 -23.9375 60.125 C-25.59156486 58.46591448 -27.24585945 56.80705798 -28.90039062 55.1484375 C-32.93625433 51.10160291 -36.96924277 47.05192047 -41 43 C-39.55419034 39.68386118 -37.75170208 37.50814272 -35.19287109 34.96582031 C-34.41221283 34.18531311 -33.63155457 33.40480591 -32.82723999 32.60064697 C-31.98448517 31.76821472 -31.14173035 30.93578247 -30.2734375 30.078125 C-29.41062164 29.21813904 -28.54780579 28.35815308 -27.65884399 27.47210693 C-24.90221971 24.7266769 -22.13872201 21.9882831 -19.375 19.25 C-17.50475143 17.38978217 -15.63495411 15.52911054 -13.765625 13.66796875 C-9.1823064 9.10670055 -4.59332522 4.55118989 0 0 Z " fill="#41A1FF" transform="translate(60,395)"/>
<path d="M0 0 C4.929375 -0.020625 9.85875 -0.04125 14.9375 -0.0625 C17.2731604 -0.07615601 17.2731604 -0.07615601 19.65600586 -0.09008789 C21.47950562 -0.09383423 21.47950562 -0.09383423 23.33984375 -0.09765625 C24.59144287 -0.10289307 25.84304199 -0.10812988 27.13256836 -0.11352539 C30 0 30 0 31 1 C31.08783542 3.21855264 31.10694609 5.43988496 31.09765625 7.66015625 C31.09515869 8.87582275 31.09266113 10.09148926 31.09008789 11.34399414 C31.08098389 12.90110107 31.07187988 14.45820801 31.0625 16.0625 C31.041875 20.991875 31.02125 25.92125 31 31 C20.77 31 10.54 31 0 31 C0 20.77 0 10.54 0 0 Z " fill="#43A0FF" transform="translate(361,421)"/>
<path d="M0 0 C1.25159912 0.00523682 2.50319824 0.01047363 3.79272461 0.01586914 C5.00839111 0.0183667 6.22405762 0.02086426 7.4765625 0.0234375 C9.03366943 0.0325415 10.59077637 0.04164551 12.19506836 0.05102539 C17.12444336 0.07165039 22.05381836 0.09227539 27.13256836 0.11352539 C27.13256836 10.34352539 27.13256836 20.57352539 27.13256836 31.11352539 C16.90256836 31.11352539 6.67256836 31.11352539 -3.86743164 31.11352539 C-3.88805664 26.18415039 -3.90868164 21.25477539 -3.92993164 16.17602539 C-3.93903564 14.61891846 -3.94813965 13.06181152 -3.95751953 11.45751953 C-3.96001709 10.24185303 -3.96251465 9.02618652 -3.96508789 7.77368164 C-3.97032471 6.52208252 -3.97556152 5.2704834 -3.98095703 3.98095703 C-3.8293481 0.15160893 -3.8293481 0.15160893 0 0 Z " fill="#4DD9FF" transform="translate(123.867431640625,420.886474609375)"/>
<path d="M0 0 C4.929375 -0.020625 9.85875 -0.04125 14.9375 -0.0625 C17.2731604 -0.07615601 17.2731604 -0.07615601 19.65600586 -0.09008789 C21.47950562 -0.09383423 21.47950562 -0.09383423 23.33984375 -0.09765625 C24.59144287 -0.10289307 25.84304199 -0.10812988 27.13256836 -0.11352539 C30 0 30 0 31 1 C31.10003289 3.13353174 31.13081048 5.27037542 31.1328125 7.40625 C31.13410156 8.70691406 31.13539063 10.00757813 31.13671875 11.34765625 C31.13357666 12.36883545 31.13357666 12.36883545 31.13037109 13.41064453 C31.1250224 15.49128515 31.1303168 17.57170989 31.13671875 19.65234375 C31.13542969 20.95300781 31.13414062 22.25367188 31.1328125 23.59375 C31.13168457 24.79708984 31.13055664 26.00042969 31.12939453 27.24023438 C31 30 31 30 30 31 C27.78144736 31.08783542 25.56011504 31.10694609 23.33984375 31.09765625 C22.12417725 31.09515869 20.90851074 31.09266113 19.65600586 31.09008789 C18.09889893 31.08098389 16.54179199 31.07187988 14.9375 31.0625 C10.008125 31.041875 5.07875 31.02125 0 31 C0 20.77 0 10.54 0 0 Z " fill="#3FA4FF" transform="translate(301,421)"/>
<path d="M0 0 C1.25159912 0.00523682 2.50319824 0.01047363 3.79272461 0.01586914 C5.00839111 0.0183667 6.22405762 0.02086426 7.4765625 0.0234375 C9.03366943 0.0325415 10.59077637 0.04164551 12.19506836 0.05102539 C17.12444336 0.07165039 22.05381836 0.09227539 27.13256836 0.11352539 C27.13256836 10.34352539 27.13256836 20.57352539 27.13256836 31.11352539 C22.20319336 31.13415039 17.27381836 31.15477539 12.19506836 31.17602539 C9.85940796 31.1896814 9.85940796 31.1896814 7.4765625 31.20361328 C5.65306274 31.20735962 5.65306274 31.20735962 3.79272461 31.21118164 C2.54112549 31.21641846 1.28952637 31.22165527 0 31.22705078 C-2.86743164 31.11352539 -2.86743164 31.11352539 -3.86743164 30.11352539 C-3.96746453 27.97999365 -3.99824212 25.84314997 -4.00024414 23.70727539 C-4.0015332 22.40661133 -4.00282227 21.10594727 -4.00415039 19.76586914 C-4.00205566 19.08508301 -3.99996094 18.40429688 -3.99780273 17.70288086 C-3.99245404 15.62224024 -3.99774844 13.5418155 -4.00415039 11.46118164 C-4.00286133 10.16051758 -4.00157227 8.85985352 -4.00024414 7.51977539 C-3.99911621 6.31643555 -3.99798828 5.1130957 -3.99682617 3.87329102 C-3.81992791 0.10035142 -3.7890218 0.15001236 0 0 Z " fill="#49D9FF" transform="translate(183.867431640625,420.886474609375)"/>
<path d="M0 0 C9.9 0 19.8 0 30 0 C30 10.23 30 20.46 30 31 C20.1 31 10.2 31 0 31 C0 20.77 0 10.54 0 0 Z " fill="#4CD7FF" transform="translate(241,421)"/>
<path d="M0 0 C4.95 0 9.9 0 15 0 C15 9.9 15 19.8 15 30 C10.05 30 5.1 30 0 30 C0 20.1 0 10.2 0 0 Z " fill="#42A1FF" transform="translate(256,422)"/>
</svg>
